<?xml version="1.0" encoding="UTF-8"?>
<svg version="1.1" viewBox="0 0 5.64306 9.77539"><defs><style>.defaults{-sfsymbols-draw-reverses-motion-groups:true;-sfsymbols-variable-value-mode:color;}.hierarchical-0:primary{-sfsymbols-layer-tags:bluetooth;-sfsymbols-motion-group:0;}.monochrome-0{-sfsymbols-layer-tags:bluetooth;-sfsymbols-motion-group:0;}.multicolor-0:systemBlueColor{-sfsymbols-layer-tags:bluetooth;-sfsymbols-motion-group:0;}</style></defs><g id="s" transform="matrix(0.00634765 0 0 0.00634765 -1.41553 9.4707)"><path class="monochrome-0 multicolor-0:systemBlueColor hierarchical-0:primary" d="m616 19c0 21 24 29 41 15l442-373c7-5 10-13 10-21 0-9-3-17-10-22l-405-340 408-340c7-5 10-14 10-21 0-8-2-17-10-22l-445-373c-17-14-41-7-41 15v683l-353-290c-5-4-11-7-17-7-15 0-23 10-23 21 0 9 4 13 8 17l385 317-385 317c-4 4-8 8-8 17 0 11 8 22 23 22 6 0 12-4 17-8l353-289Zm44-49v-661l395 330Zm0-724v-660l399 331Z"/></g></svg>
